<?xml version="1.0" encoding="UTF-8" standalone="no"?>
<!-- Created with Inkscape (http://www.inkscape.org/) -->

<svg
   xmlns:dc="http://purl.org/dc/elements/1.1/"
   xmlns:cc="http://creativecommons.org/ns#"
   xmlns:rdf="http://www.w3.org/1999/02/22-rdf-syntax-ns#"
   xmlns:svg="http://www.w3.org/2000/svg"
   xmlns="http://www.w3.org/2000/svg"
   xmlns:xlink="http://www.w3.org/1999/xlink"
   xmlns:sodipodi="http://sodipodi.sourceforge.net/DTD/sodipodi-0.dtd"
   xmlns:inkscape="http://www.inkscape.org/namespaces/inkscape"
   width="228.89186"
   height="450.36746"
   id="svg2"
   version="1.1"
   inkscape:version="0.48.4 r9939"
   inkscape:export-filename="/scratch/Dropbox/script.foscam/right.png"
   inkscape:export-xdpi="31.89809"
   inkscape:export-ydpi="31.89809"
   sodipodi:docname="buttons.svg">
  <defs
     id="defs4">
    <linearGradient
       inkscape:collect="always"
       id="linearGradient3785">
      <stop
         style="stop-color:#000000;stop-opacity:1;"
         offset="0"
         id="stop3787" />
      <stop
         style="stop-color:#000000;stop-opacity:0;"
         offset="1"
         id="stop3789" />
    </linearGradient>
    <linearGradient
       inkscape:collect="always"
       xlink:href="#linearGradient3785"
       id="linearGradient3791"
       x1="-1457.1428"
       y1="3023.7908"
       x2="-1442.8572"
       y2="2466.6479"
       gradientUnits="userSpaceOnUse" />
    <linearGradient
       inkscape:collect="always"
       xlink:href="#linearGradient3785"
       id="linearGradient3795"
       gradientUnits="userSpaceOnUse"
       x1="-1452.8571"
       y1="2973.7908"
       x2="-1442.8572"
       y2="2466.6479" />
    <linearGradient
       inkscape:collect="always"
       xlink:href="#linearGradient3785"
       id="linearGradient3822"
       gradientUnits="userSpaceOnUse"
       x1="-1452.8571"
       y1="2973.7908"
       x2="-1442.8572"
       y2="2466.6479" />
    <linearGradient
       inkscape:collect="always"
       xlink:href="#linearGradient3785"
       id="linearGradient3830"
       gradientUnits="userSpaceOnUse"
       x1="-1452.8571"
       y1="2973.7908"
       x2="-1442.8572"
       y2="2466.6479" />
    <linearGradient
       inkscape:collect="always"
       xlink:href="#linearGradient3785"
       id="linearGradient3838"
       gradientUnits="userSpaceOnUse"
       x1="-1452.8571"
       y1="2973.7908"
       x2="-1442.8572"
       y2="2466.6479" />
    <linearGradient
       inkscape:collect="always"
       xlink:href="#linearGradient3785"
       id="linearGradient3073"
       gradientUnits="userSpaceOnUse"
       x1="-1452.8571"
       y1="2973.7908"
       x2="-1442.8572"
       y2="2466.6479" />
    <linearGradient
       inkscape:collect="always"
       xlink:href="#linearGradient3785"
       id="linearGradient3075"
       gradientUnits="userSpaceOnUse"
       x1="-1452.8571"
       y1="2973.7908"
       x2="-1442.8572"
       y2="2466.6479" />
    <linearGradient
       inkscape:collect="always"
       xlink:href="#linearGradient3785"
       id="linearGradient3089"
       gradientUnits="userSpaceOnUse"
       x1="-1452.8571"
       y1="2973.7908"
       x2="-1442.8572"
       y2="2466.6479" />
    <linearGradient
       inkscape:collect="always"
       xlink:href="#linearGradient3785"
       id="linearGradient3091"
       gradientUnits="userSpaceOnUse"
       x1="-1452.8571"
       y1="2973.7908"
       x2="-1442.8572"
       y2="2466.6479" />
    <linearGradient
       inkscape:collect="always"
       xlink:href="#linearGradient3785"
       id="linearGradient3105"
       gradientUnits="userSpaceOnUse"
       x1="-1452.8571"
       y1="2973.7908"
       x2="-1442.8572"
       y2="2466.6479" />
    <linearGradient
       inkscape:collect="always"
       xlink:href="#linearGradient3785"
       id="linearGradient3107"
       gradientUnits="userSpaceOnUse"
       x1="-1452.8571"
       y1="2973.7908"
       x2="-1442.8572"
       y2="2466.6479" />
    <linearGradient
       inkscape:collect="always"
       xlink:href="#linearGradient3785"
       id="linearGradient3060"
       gradientUnits="userSpaceOnUse"
       x1="-1452.8571"
       y1="2973.7908"
       x2="-1442.8572"
       y2="2466.6479" />
    <linearGradient
       inkscape:collect="always"
       xlink:href="#linearGradient3785"
       id="linearGradient3062"
       gradientUnits="userSpaceOnUse"
       x1="-1452.8571"
       y1="2973.7908"
       x2="-1442.8572"
       y2="2466.6479" />
    <linearGradient
       inkscape:collect="always"
       xlink:href="#linearGradient3785"
       id="linearGradient3064"
       gradientUnits="userSpaceOnUse"
       x1="-1452.8571"
       y1="2973.7908"
       x2="-1442.8572"
       y2="2466.6479" />
    <linearGradient
       inkscape:collect="always"
       xlink:href="#linearGradient3785"
       id="linearGradient3066"
       gradientUnits="userSpaceOnUse"
       x1="-1452.8571"
       y1="2973.7908"
       x2="-1442.8572"
       y2="2466.6479" />
    <linearGradient
       inkscape:collect="always"
       xlink:href="#linearGradient3785"
       id="linearGradient3068"
       gradientUnits="userSpaceOnUse"
       x1="-1452.8571"
       y1="2973.7908"
       x2="-1442.8572"
       y2="2466.6479" />
    <linearGradient
       inkscape:collect="always"
       xlink:href="#linearGradient3785"
       id="linearGradient3070"
       gradientUnits="userSpaceOnUse"
       x1="-1452.8571"
       y1="2973.7908"
       x2="-1442.8572"
       y2="2466.6479" />
    <linearGradient
       inkscape:collect="always"
       xlink:href="#linearGradient3785"
       id="linearGradient3072"
       gradientUnits="userSpaceOnUse"
       x1="-1452.8571"
       y1="2973.7908"
       x2="-1442.8572"
       y2="2466.6479" />
    <linearGradient
       inkscape:collect="always"
       xlink:href="#linearGradient3785"
       id="linearGradient3074"
       gradientUnits="userSpaceOnUse"
       x1="-1452.8571"
       y1="2973.7908"
       x2="-1442.8572"
       y2="2466.6479" />
  </defs>
  <sodipodi:namedview
     id="base"
     pagecolor="#ffffff"
     bordercolor="#666666"
     borderopacity="1.0"
     inkscape:pageopacity="0.0"
     inkscape:pageshadow="2"
     inkscape:zoom="1"
     inkscape:cx="108.7844"
     inkscape:cy="257.52395"
     inkscape:document-units="px"
     inkscape:current-layer="layer1"
     showgrid="false"
     inkscape:snap-to-guides="false"
     inkscape:snap-grids="true"
     inkscape:snap-object-midpoints="true"
     inkscape:window-width="1600"
     inkscape:window-height="841"
     inkscape:window-x="0"
     inkscape:window-y="27"
     inkscape:window-maximized="1"
     fit-margin-top="10"
     fit-margin-left="10"
     fit-margin-right="10"
     fit-margin-bottom="10" />
  <metadata
     id="metadata7">
    <rdf:RDF>
      <cc:Work
         rdf:about="">
        <dc:format>image/svg+xml</dc:format>
        <dc:type
           rdf:resource="http://purl.org/dc/dcmitype/StillImage" />
        <dc:title />
      </cc:Work>
    </rdf:RDF>
  </metadata>
  <g
     inkscape:label="Layer 1"
     inkscape:groupmode="layer"
     id="layer1"
     transform="translate(-101.29408,-90.852471)">
    <g
       id="g3025"
       transform="translate(-6.9782,1.8514906)">
      <path
         sodipodi:type="arc"
         style="fill:#55d400;stroke:#ffffff;stroke-width:20;stroke-miterlimit:4;stroke-opacity:1;stroke-dasharray:none"
         id="path3824"
         sodipodi:cx="-1444.2858"
         sodipodi:cy="2505.2192"
         sodipodi:rx="215.71428"
         sodipodi:ry="215.71428"
         d="m -1228.5715,2505.2192 c 0,119.1357 -96.5786,215.7143 -215.7143,215.7143 -119.1357,0 -215.7142,-96.5786 -215.7142,-215.7143 0,-119.1357 96.5785,-215.7142 215.7142,-215.7142 119.1357,0 215.7143,96.5785 215.7143,215.7142 z"
         transform="matrix(0.2,0,0,0.2,452.27228,-356.89902)"
         inkscape:export-filename="/home/lee/addons/script.foscam/up-focus2.png"
         inkscape:export-xdpi="31.898111"
         inkscape:export-ydpi="31.898111" />
      <path
         style="fill:#666666;stroke:#ffffff;stroke-width:1;stroke-miterlimit:4;stroke-opacity:1;stroke-dasharray:none"
         d="m 143.74308,153.28089 20.072,-27.0721 20.0721,27.0721 z"
         id="path3828"
         inkscape:connector-curvature="0"
         sodipodi:nodetypes="cccc"
         inkscape:export-filename="/home/lee/addons/script.foscam/up-focus2.png"
         inkscape:export-xdpi="31.898111"
         inkscape:export-ydpi="31.898111" />
      <path
         d="m -1228.5715,2505.2192 c 0,119.1357 -96.5786,215.7143 -215.7143,215.7143 -119.1357,0 -215.7142,-96.5786 -215.7142,-215.7143 0,-119.1357 96.5785,-215.7142 215.7142,-215.7142 119.1357,0 215.7143,96.5785 215.7143,215.7142 z"
         sodipodi:ry="215.71428"
         sodipodi:rx="215.71428"
         sodipodi:cy="2505.2192"
         sodipodi:cx="-1444.2858"
         id="path3826"
         style="fill:url(#linearGradient3066);fill-opacity:1;stroke:#ffffff;stroke-width:20;stroke-miterlimit:4;stroke-opacity:1;stroke-dasharray:none"
         sodipodi:type="arc"
         inkscape:export-filename="/home/lee/addons/script.foscam/up-focus2.png"
         inkscape:export-xdpi="31.898111"
         inkscape:export-ydpi="31.898111"
         transform="matrix(0.2,0,0,0.2,452.27228,-356.89902)" />
    </g>
    <g
       id="g3030"
       transform="translate(-3.98754,-2.4208769)">
      <path
         inkscape:export-ydpi="31.89809"
         inkscape:export-xdpi="31.89809"
         inkscape:export-filename="/home/lee/up.png"
         transform="matrix(0.2,0,0,0.2,449.28162,-239.26662)"
         d="m -1228.5715,2505.2192 c 0,119.1357 -96.5786,215.7143 -215.7143,215.7143 -119.1357,0 -215.7142,-96.5786 -215.7142,-215.7143 0,-119.1357 96.5785,-215.7142 215.7142,-215.7142 119.1357,0 215.7143,96.5785 215.7143,215.7142 z"
         sodipodi:ry="215.71428"
         sodipodi:rx="215.71428"
         sodipodi:cy="2505.2192"
         sodipodi:cx="-1444.2858"
         id="path3832"
         style="fill:#cccccc;stroke:#ffffff;stroke-width:20;stroke-miterlimit:4;stroke-opacity:1;stroke-dasharray:none"
         sodipodi:type="arc" />
      <path
         inkscape:export-ydpi="31.89809"
         inkscape:export-xdpi="31.89809"
         inkscape:export-filename="/home/lee/up.png"
         sodipodi:nodetypes="cccc"
         inkscape:connector-curvature="0"
         id="path3834"
         d="m 140.75242,270.91329 20.072,-27.0721 20.0721,27.0721 z"
         style="fill:#666666;stroke:#ffffff;stroke-width:1;stroke-miterlimit:4;stroke-opacity:1;stroke-dasharray:none" />
      <path
         transform="matrix(0.2,0,0,0.2,449.28162,-239.26662)"
         inkscape:export-ydpi="31.89809"
         inkscape:export-xdpi="31.89809"
         inkscape:export-filename="/home/lee/up.png"
         sodipodi:type="arc"
         style="fill:url(#linearGradient3062);fill-opacity:1;stroke:#ffffff;stroke-width:20;stroke-miterlimit:4;stroke-opacity:1;stroke-dasharray:none"
         id="path3836"
         sodipodi:cx="-1444.2858"
         sodipodi:cy="2505.2192"
         sodipodi:rx="215.71428"
         sodipodi:ry="215.71428"
         d="m -1228.5715,2505.2192 c 0,119.1357 -96.5786,215.7143 -215.7143,215.7143 -119.1357,0 -215.7142,-96.5786 -215.7142,-215.7143 0,-119.1357 96.5785,-215.7142 215.7142,-215.7142 119.1357,0 215.7143,96.5785 215.7143,215.7142 z" />
    </g>
    <g
       id="g3020"
       transform="translate(-90.741435,-1.1391594)">
      <path
         inkscape:export-ydpi="31.898111"
         inkscape:export-xdpi="31.898111"
         inkscape:export-filename="/scratch/Dropbox/script.foscam/down-focus.png"
         transform="matrix(0.2,0,0,0.2,654.63988,-353.90837)"
         d="m -1228.5715,2505.2192 c 0,119.1357 -96.5786,215.7143 -215.7143,215.7143 -119.1357,0 -215.7142,-96.5786 -215.7142,-215.7143 0,-119.1357 96.5785,-215.7142 215.7142,-215.7142 119.1357,0 215.7143,96.5785 215.7143,215.7142 z"
         sodipodi:ry="215.71428"
         sodipodi:rx="215.71428"
         sodipodi:cy="2505.2192"
         sodipodi:cx="-1444.2858"
         id="path3061"
         style="fill:#55d400;stroke:#ffffff;stroke-width:20;stroke-miterlimit:4;stroke-opacity:1;stroke-dasharray:none"
         sodipodi:type="arc" />
      <path
         inkscape:export-ydpi="31.898111"
         inkscape:export-xdpi="31.898111"
         inkscape:export-filename="/scratch/Dropbox/script.foscam/down-focus.png"
         sodipodi:nodetypes="cccc"
         inkscape:connector-curvature="0"
         id="path3063"
         d="m 386.25478,137.19944 -20.072,27.0721 -20.0721,-27.0721 z"
         style="fill:#666666;stroke:#ffffff;stroke-width:1;stroke-miterlimit:4;stroke-opacity:1;stroke-dasharray:none" />
      <path
         transform="matrix(0.2,0,0,0.2,654.63988,-353.90837)"
         inkscape:export-ydpi="31.898111"
         inkscape:export-xdpi="31.898111"
         inkscape:export-filename="/scratch/Dropbox/script.foscam/down-focus.png"
         sodipodi:type="arc"
         style="fill:url(#linearGradient3072);fill-opacity:1;stroke:#ffffff;stroke-width:20;stroke-miterlimit:4;stroke-opacity:1;stroke-dasharray:none"
         id="path3065"
         sodipodi:cx="-1444.2858"
         sodipodi:cy="2505.2192"
         sodipodi:rx="215.71428"
         sodipodi:ry="215.71428"
         d="m -1228.5715,2505.2192 c 0,119.1357 -96.5786,215.7143 -215.7143,215.7143 -119.1357,0 -215.7142,-96.5786 -215.7142,-215.7143 0,-119.1357 96.5785,-215.7142 215.7142,-215.7142 119.1357,0 215.7143,96.5785 215.7143,215.7142 z" />
    </g>
    <g
       id="g3035"
       transform="translate(-87.750775,-5.4115744)">
      <path
         sodipodi:type="arc"
         style="fill:#cccccc;stroke:#ffffff;stroke-width:20;stroke-miterlimit:4;stroke-opacity:1;stroke-dasharray:none"
         id="path3067"
         sodipodi:cx="-1444.2858"
         sodipodi:cy="2505.2192"
         sodipodi:rx="215.71428"
         sodipodi:ry="215.71428"
         d="m -1228.5715,2505.2192 c 0,119.1357 -96.5786,215.7143 -215.7143,215.7143 -119.1357,0 -215.7142,-96.5786 -215.7142,-215.7143 0,-119.1357 96.5785,-215.7142 215.7142,-215.7142 119.1357,0 215.7143,96.5785 215.7143,215.7142 z"
         transform="matrix(0.2,0,0,0.2,651.64922,-236.27597)"
         inkscape:export-filename="/scratch/Dropbox/script.foscam/down.png"
         inkscape:export-xdpi="31.89809"
         inkscape:export-ydpi="31.89809" />
      <path
         style="fill:#666666;stroke:#ffffff;stroke-width:1;stroke-miterlimit:4;stroke-opacity:1;stroke-dasharray:none"
         d="m 383.26412,254.83184 -20.072,27.0721 -20.0721,-27.0721 z"
         id="path3069"
         inkscape:connector-curvature="0"
         sodipodi:nodetypes="cccc"
         inkscape:export-filename="/scratch/Dropbox/script.foscam/down.png"
         inkscape:export-xdpi="31.89809"
         inkscape:export-ydpi="31.89809" />
      <path
         d="m -1228.5715,2505.2192 c 0,119.1357 -96.5786,215.7143 -215.7143,215.7143 -119.1357,0 -215.7142,-96.5786 -215.7142,-215.7143 0,-119.1357 96.5785,-215.7142 215.7142,-215.7142 119.1357,0 215.7143,96.5785 215.7143,215.7142 z"
         sodipodi:ry="215.71428"
         sodipodi:rx="215.71428"
         sodipodi:cy="2505.2192"
         sodipodi:cx="-1444.2858"
         id="path3071"
         style="fill:url(#linearGradient3070);fill-opacity:1;stroke:#ffffff;stroke-width:20;stroke-miterlimit:4;stroke-opacity:1;stroke-dasharray:none"
         sodipodi:type="arc"
         inkscape:export-filename="/scratch/Dropbox/script.foscam/down.png"
         inkscape:export-xdpi="31.89809"
         inkscape:export-ydpi="31.89809"
         transform="matrix(0.2,0,0,0.2,651.64922,-236.27597)" />
    </g>
    <g
       id="g3040"
       transform="translate(-2.99066,-47.565559)">
      <path
         sodipodi:type="arc"
         style="fill:#55d400;stroke:#ffffff;stroke-width:20;stroke-miterlimit:4;stroke-opacity:1;stroke-dasharray:none"
         id="path3077"
         sodipodi:cx="-1444.2858"
         sodipodi:cy="2505.2192"
         sodipodi:rx="215.71428"
         sodipodi:ry="215.71428"
         d="m -1228.5715,2505.2192 c 0,119.1357 -96.5786,215.7143 -215.7143,215.7143 -119.1357,0 -215.7142,-96.5786 -215.7142,-215.7143 0,-119.1357 96.5785,-215.7142 215.7142,-215.7142 119.1357,0 215.7143,96.5785 215.7143,215.7142 z"
         transform="matrix(0.2,0,0,0.2,448.28474,-80.761953)"
         inkscape:export-filename="/scratch/Dropbox/script.foscam/right-focus.png"
         inkscape:export-xdpi="31.898111"
         inkscape:export-ydpi="31.898111" />
      <path
         style="fill:#666666;stroke:#ffffff;stroke-width:1;stroke-miterlimit:4;stroke-opacity:1;stroke-dasharray:none"
         d="m 150.29154,399.80986 27.0721,20.072 -27.0721,20.0721 z"
         id="path3079"
         inkscape:connector-curvature="0"
         sodipodi:nodetypes="cccc"
         inkscape:export-filename="/scratch/Dropbox/script.foscam/right-focus.png"
         inkscape:export-xdpi="31.898111"
         inkscape:export-ydpi="31.898111" />
      <path
         d="m -1228.5715,2505.2192 c 0,119.1357 -96.5786,215.7143 -215.7143,215.7143 -119.1357,0 -215.7142,-96.5786 -215.7142,-215.7143 0,-119.1357 96.5785,-215.7142 215.7142,-215.7142 119.1357,0 215.7143,96.5785 215.7143,215.7142 z"
         sodipodi:ry="215.71428"
         sodipodi:rx="215.71428"
         sodipodi:cy="2505.2192"
         sodipodi:cx="-1444.2858"
         id="path3081"
         style="fill:url(#linearGradient3060);fill-opacity:1;stroke:#ffffff;stroke-width:20;stroke-miterlimit:4;stroke-opacity:1;stroke-dasharray:none"
         sodipodi:type="arc"
         inkscape:export-filename="/scratch/Dropbox/script.foscam/right-focus.png"
         inkscape:export-xdpi="31.898111"
         inkscape:export-ydpi="31.898111"
         transform="matrix(0.2,0,0,0.2,448.28474,-80.761953)" />
    </g>
    <g
       id="g3050"
       transform="translate(0,-51.83802)">
      <path
         inkscape:export-ydpi="31.89809"
         inkscape:export-xdpi="31.89809"
         inkscape:export-filename="/scratch/Dropbox/script.foscam/right.png"
         transform="matrix(0.2,0,0,0.2,445.29408,36.870447)"
         d="m -1228.5715,2505.2192 c 0,119.1357 -96.5786,215.7143 -215.7143,215.7143 -119.1357,0 -215.7142,-96.5786 -215.7142,-215.7143 0,-119.1357 96.5785,-215.7142 215.7142,-215.7142 119.1357,0 215.7143,96.5785 215.7143,215.7142 z"
         sodipodi:ry="215.71428"
         sodipodi:rx="215.71428"
         sodipodi:cy="2505.2192"
         sodipodi:cx="-1444.2858"
         id="path3083"
         style="fill:#cccccc;stroke:#ffffff;stroke-width:20;stroke-miterlimit:4;stroke-opacity:1;stroke-dasharray:none"
         sodipodi:type="arc" />
      <path
         inkscape:export-ydpi="31.89809"
         inkscape:export-xdpi="31.89809"
         inkscape:export-filename="/scratch/Dropbox/script.foscam/right.png"
         sodipodi:nodetypes="cccc"
         inkscape:connector-curvature="0"
         id="path3085"
         d="m 147.30088,517.44226 27.0721,20.072 -27.0721,20.0721 z"
         style="fill:#666666;stroke:#ffffff;stroke-width:1;stroke-miterlimit:4;stroke-opacity:1;stroke-dasharray:none" />
      <path
         transform="matrix(0.2,0,0,0.2,445.29408,36.870447)"
         inkscape:export-ydpi="31.89809"
         inkscape:export-xdpi="31.89809"
         inkscape:export-filename="/scratch/Dropbox/script.foscam/right.png"
         sodipodi:type="arc"
         style="fill:url(#linearGradient3064);fill-opacity:1;stroke:#ffffff;stroke-width:20;stroke-miterlimit:4;stroke-opacity:1;stroke-dasharray:none"
         id="path3087"
         sodipodi:cx="-1444.2858"
         sodipodi:cy="2505.2192"
         sodipodi:rx="215.71428"
         sodipodi:ry="215.71428"
         d="m -1228.5715,2505.2192 c 0,119.1357 -96.5786,215.7143 -215.7143,215.7143 -119.1357,0 -215.7142,-96.5786 -215.7142,-215.7143 0,-119.1357 96.5785,-215.7142 215.7142,-215.7142 119.1357,0 215.7143,96.5785 215.7143,215.7142 z" />
    </g>
    <g
       id="g3045"
       transform="translate(-87.750785,-50.55626)">
      <path
         inkscape:export-ydpi="31.898111"
         inkscape:export-xdpi="31.898111"
         inkscape:export-filename="/scratch/Dropbox/script.foscam/left-focus.png"
         transform="matrix(0.2,0,0,0.2,651.64923,-77.771299)"
         d="m -1228.5715,2505.2192 c 0,119.1357 -96.5786,215.7143 -215.7143,215.7143 -119.1357,0 -215.7142,-96.5786 -215.7142,-215.7143 0,-119.1357 96.5785,-215.7142 215.7142,-215.7142 119.1357,0 215.7143,96.5785 215.7143,215.7142 z"
         sodipodi:ry="215.71428"
         sodipodi:rx="215.71428"
         sodipodi:cy="2505.2192"
         sodipodi:cx="-1444.2858"
         id="path3093"
         style="fill:#55d400;stroke:#ffffff;stroke-width:20;stroke-miterlimit:4;stroke-opacity:1;stroke-dasharray:none"
         sodipodi:type="arc" />
      <path
         inkscape:export-ydpi="31.898111"
         inkscape:export-xdpi="31.898111"
         inkscape:export-filename="/scratch/Dropbox/script.foscam/left-focus.png"
         sodipodi:nodetypes="cccc"
         inkscape:connector-curvature="0"
         id="path3095"
         d="m 372.72813,442.94461 -27.0721,-20.072 27.0721,-20.0721 z"
         style="fill:#666666;stroke:#ffffff;stroke-width:1;stroke-miterlimit:4;stroke-opacity:1;stroke-dasharray:none" />
      <path
         transform="matrix(0.2,0,0,0.2,651.64923,-77.771299)"
         inkscape:export-ydpi="31.898111"
         inkscape:export-xdpi="31.898111"
         inkscape:export-filename="/scratch/Dropbox/script.foscam/left-focus.png"
         sodipodi:type="arc"
         style="fill:url(#linearGradient3068);fill-opacity:1;stroke:#ffffff;stroke-width:20;stroke-miterlimit:4;stroke-opacity:1;stroke-dasharray:none"
         id="path3097"
         sodipodi:cx="-1444.2858"
         sodipodi:cy="2505.2192"
         sodipodi:rx="215.71428"
         sodipodi:ry="215.71428"
         d="m -1228.5715,2505.2192 c 0,119.1357 -96.5786,215.7143 -215.7143,215.7143 -119.1357,0 -215.7142,-96.5786 -215.7142,-215.7143 0,-119.1357 96.5785,-215.7142 215.7142,-215.7142 119.1357,0 215.7143,96.5785 215.7143,215.7142 z" />
    </g>
    <g
       id="g3055"
       transform="translate(-84.760125,-54.828674)">
      <path
         sodipodi:type="arc"
         style="fill:#cccccc;stroke:#ffffff;stroke-width:20;stroke-miterlimit:4;stroke-opacity:1;stroke-dasharray:none"
         id="path3099"
         sodipodi:cx="-1444.2858"
         sodipodi:cy="2505.2192"
         sodipodi:rx="215.71428"
         sodipodi:ry="215.71428"
         d="m -1228.5715,2505.2192 c 0,119.1357 -96.5786,215.7143 -215.7143,215.7143 -119.1357,0 -215.7142,-96.5786 -215.7142,-215.7143 0,-119.1357 96.5785,-215.7142 215.7142,-215.7142 119.1357,0 215.7143,96.5785 215.7143,215.7142 z"
         transform="matrix(0.2,0,0,0.2,648.65857,39.861101)"
         inkscape:export-filename="/scratch/Dropbox/script.foscam/left.png"
         inkscape:export-xdpi="31.89809"
         inkscape:export-ydpi="31.89809" />
      <path
         style="fill:#666666;stroke:#ffffff;stroke-width:1;stroke-miterlimit:4;stroke-opacity:1;stroke-dasharray:none"
         d="m 369.73747,560.57701 -27.0721,-20.072 27.0721,-20.0721 z"
         id="path3101"
         inkscape:connector-curvature="0"
         sodipodi:nodetypes="cccc"
         inkscape:export-filename="/scratch/Dropbox/script.foscam/left.png"
         inkscape:export-xdpi="31.89809"
         inkscape:export-ydpi="31.89809" />
      <path
         d="m -1228.5715,2505.2192 c 0,119.1357 -96.5786,215.7143 -215.7143,215.7143 -119.1357,0 -215.7142,-96.5786 -215.7142,-215.7143 0,-119.1357 96.5785,-215.7142 215.7142,-215.7142 119.1357,0 215.7143,96.5785 215.7143,215.7142 z"
         sodipodi:ry="215.71428"
         sodipodi:rx="215.71428"
         sodipodi:cy="2505.2192"
         sodipodi:cx="-1444.2858"
         id="path3103"
         style="fill:url(#linearGradient3074);fill-opacity:1;stroke:#ffffff;stroke-width:20;stroke-miterlimit:4;stroke-opacity:1;stroke-dasharray:none"
         sodipodi:type="arc"
         inkscape:export-filename="/scratch/Dropbox/script.foscam/left.png"
         inkscape:export-xdpi="31.89809"
         inkscape:export-ydpi="31.89809"
         transform="matrix(0.2,0,0,0.2,648.65857,39.861101)" />
    </g>
  </g>
</svg>
